<svg width="414.8884033203125px" height="122px" xmlns="http://www.w3.org/2000/svg" viewBox="42.55579833984376 14 414.8884033203125 122" style="background:#596886" preserveAspectRatio="xMidYMid"><defs><filter id="editing-hover" x="-100%" y="-100%" width="300%" height="300%"><feFlood flood-color="#052b4a" result="flood"></feFlood><feComposite operator="in" in2="SourceAlpha" in="flood" result="shadow"></feComposite><feOffset dx="-4" dy="-4" in="SourceGraphic" result="offset-1"></feOffset><feOffset dx="4" dy="4" in="shadow" result="offset-2"></feOffset><feMerge><feMergeNode in="offset-2"></feMergeNode><feMergeNode in="offset-1"></feMergeNode></feMerge></filter></defs><g filter="url(#editing-hover)"><g transform="translate(109.58546304702759, 104.44000053405762)"><path d="M6.21-31.17L6.21-31.17L6.21-31.17Q4.03-32.83 4.03-36.38L4.03-36.38L4.03-36.38Q4.03-39.94 6.37-41.79L6.37-41.79L6.37-41.79Q8.70-43.65 12.74-43.65L12.74-43.65L12.74-43.65Q15.30-43.65 21.38-42.75L21.38-42.75L25.73-42.11L25.73-42.11Q27.90-41.86 30.18-41.86L30.18-41.86L30.18-41.86Q32.45-41.86 33.98-42.82L33.98-42.82L33.98-42.82Q36.29-40.77 36.29-37.82L36.29-37.82L36.29-37.82Q36.29-34.88 33.66-32.77L33.66-32.77L33.66-32.77Q30.98-30.53 27.52-30.53L27.52-30.53L27.52-30.53Q25.86-30.53 23.17-30.98L23.17-30.98L23.17-30.98Q20.03-21.12 20.03-14.27L20.03-14.27L20.03-14.27Q20.03-7.42 23.49-3.84L23.49-3.84L23.49-3.84Q21.89-0.96 19.52 0.16L19.52 0.16L19.52 0.16Q17.15 1.28 13.60 1.28L13.60 1.28L13.60 1.28Q10.05 1.28 7.84-0.67L7.84-0.67L7.84-0.67Q5.63-2.62 5.63-6.66L5.63-6.66L5.63-6.66Q5.63-11.33 8.19-19.01L8.19-19.01L8.19-19.01Q10.75-26.62 14.59-32.45L14.59-32.45L14.59-32.45Q12.74-32.64 10.82-32.64L10.82-32.64L10.82-32.64Q6.85-32.64 6.21-31.17ZM45.25 1.28L45.25 1.28L45.25 1.28Q31.17 1.28 31.17-11.97L31.17-11.97L31.17-11.97Q31.17-21.38 36.35-27.46L36.35-27.46L36.35-27.46Q41.86-33.92 51.39-33.92L51.39-33.92L51.39-33.92Q58.30-33.92 61.82-30.72L61.82-30.72L61.82-30.72Q65.34-27.52 65.34-20.80L65.34-20.80L65.34-20.80Q65.34-10.56 59.84-4.61L59.84-4.61L59.84-4.61Q54.46 1.28 45.25 1.28ZM46.91-26.56L46.91-26.56L46.91-26.56Q46.14-24.83 45.54-22.24L45.54-22.24L45.54-22.24Q44.93-19.65 44.16-15.55L44.16-15.55L44.16-15.55Q43.39-11.46 43.39-6.40L43.39-6.40L43.39-6.40Q43.39-4.74 43.94-3.65L43.94-3.65L43.94-3.65Q44.48-2.56 45.95-2.56L45.95-2.56L45.95-2.56Q47.42-2.56 48.35-3.26L48.35-3.26L48.35-3.26Q49.28-3.97 49.98-5.63L49.98-5.63L49.98-5.63Q51.26-8.58 52.29-14.05L52.29-14.05L52.29-14.05Q53.31-19.52 53.41-21.89L53.41-21.89L53.41-21.89Q53.50-24.26 53.50-26.02L53.50-26.02L53.50-26.02Q53.50-27.78 52.99-28.93L52.99-28.93L52.99-28.93Q52.48-30.08 51.04-30.08L51.04-30.08L51.04-30.08Q49.60-30.08 48.64-29.18L48.64-29.18L48.64-29.18Q47.68-28.29 46.91-26.56ZM98.94-4.38L98.94-4.38L98.94-4.38Q96.26-1.66 92.58-0.19L92.58-0.19L92.58-0.19Q88.90 1.28 85.25 1.28L85.25 1.28L85.25 1.28Q81.60 1.28 80.32 0.64L80.32 0.64L78.34 11.52L65.34 12.80L74.18-32.64L84.61-33.73L83.78-29.31L83.78-29.31Q86.46-33.86 92.03-33.86L92.03-33.86L92.03-33.86Q98.30-33.86 101.63-29.82L101.63-29.82L101.63-29.82Q104.58-26.18 104.58-20.61L104.58-20.61L104.58-20.61Q104.58-15.04 103.10-11.07L103.10-11.07L103.10-11.07Q101.63-7.10 98.94-4.38ZM84.48-22.34L81.09-3.58L81.09-3.58Q82.43-2.43 84.10-2.43L84.10-2.43L84.10-2.43Q85.76-2.43 86.72-3.07L86.72-3.07L86.72-3.07Q87.68-3.71 88.38-4.99L88.38-4.99L88.38-4.99Q90.30-8.45 91.84-18.94L91.84-18.94L91.84-18.94Q92.29-22.02 92.29-25.02L92.29-25.02L92.29-25.02Q92.29-28.03 91.62-28.99L91.62-28.99L91.62-28.99Q90.94-29.95 89.66-29.95L89.66-29.95L89.66-29.95Q85.76-29.95 84.48-22.34L84.48-22.34ZM146.56-29.57L146.56-29.57L146.56-29.57Q147.52-31.49 147.52-33.28L147.52-33.28L147.52-33.28Q147.52-35.07 147.33-36.06L147.33-36.06L147.33-36.06Q147.14-37.06 146.69-37.82L146.69-37.82L146.69-37.82Q145.73-39.49 143.81-39.49L143.81-39.49L143.81-39.49Q141.44-39.49 139.52-37.76L139.52-37.76L139.52-37.76Q137.47-35.97 137.47-33.15L137.47-33.15L137.47-33.15Q137.47-31.36 138.72-29.98L138.72-29.98L138.72-29.98Q139.97-28.61 141.89-27.33L141.89-27.33L141.89-27.33Q143.81-26.05 145.98-24.77L145.98-24.77L145.98-24.77Q148.16-23.49 150.08-21.95L150.08-21.95L150.08-21.95Q154.50-18.43 154.50-13.70L154.50-13.70L154.50-13.70Q154.50-10.50 152.80-7.78L152.80-7.78L152.80-7.78Q151.10-5.06 148.29-3.07L148.29-3.07L148.29-3.07Q142.14 1.28 134.02 1.28L134.02 1.28L134.02 1.28Q127.42 1.28 124.03-0.86L124.03-0.86L124.03-0.86Q120.64-3.01 120.64-6.27L120.64-6.27L120.64-6.27Q120.64-12.10 125.18-13.57L125.18-13.57L125.18-13.57Q126.46-14.02 128.42-14.02L128.42-14.02L128.42-14.02Q130.37-14.02 132.61-13.18L132.61-13.18L132.61-13.18Q131.58-10.56 131.58-8.19L131.58-8.19L131.58-8.19Q131.58-3.07 135.23-3.07L135.23-3.07L135.23-3.07Q137.60-3.07 139.55-4.80L139.55-4.80L139.55-4.80Q141.50-6.53 141.50-8.48L141.50-8.48L141.50-8.48Q141.50-10.43 140.26-11.84L140.26-11.84L140.26-11.84Q139.01-13.25 137.15-14.37L137.15-14.37L137.15-14.37Q135.30-15.49 133.15-16.58L133.15-16.58L133.15-16.58Q131.01-17.66 129.15-19.20L129.15-19.20L129.15-19.20Q124.80-22.72 124.80-28.35L124.80-28.35L124.80-28.35Q124.80-32 126.59-34.85L126.59-34.85L126.59-34.85Q128.38-37.70 131.26-39.62L131.26-39.62L131.26-39.62Q137.02-43.52 144.10-43.52L144.10-43.52L144.10-43.52Q151.17-43.52 154.59-41.41L154.59-41.41L154.59-41.41Q158.02-39.30 158.02-35.71L158.02-35.71L158.02-35.71Q158.02-32.58 155.58-30.59L155.58-30.59L155.58-30.59Q153.47-28.93 150.91-28.93L150.91-28.93L150.91-28.93Q148.35-28.93 146.56-29.57ZM191.55-7.10L191.55-7.10L191.55-7.10Q191.55-4.29 194.43-3.46L194.43-3.46L194.43-3.46Q193.73-1.09 190.98 0.19L190.98 0.19L190.98 0.19Q188.67 1.28 186.14 1.28L186.14 1.28L186.14 1.28Q183.62 1.28 182.30 0.61L182.30 0.61L182.30 0.61Q180.99-0.06 180.29-1.15L180.29-1.15L180.29-1.15Q179.14-2.82 179.14-5.95L179.14-5.95L179.14-5.95Q179.14-7.81 180.16-12.93L180.16-12.93L181.06-17.79L181.06-17.79Q182.14-23.36 182.14-25.41L182.14-25.41L182.14-25.41Q182.14-28.99 180.16-28.99L180.16-28.99L180.16-28.99Q177.66-28.99 176.06-25.34L176.06-25.34L176.06-25.34Q175.42-23.94 174.98-21.82L174.98-21.82L170.62 0L157.76 1.28L166.78-44.80L179.65-46.08L179.14-43.52L179.14-43.52Q177.34-33.66 175.81-30.34L175.81-30.34L175.81-30.34Q179.39-33.92 185.98-33.92L185.98-33.92L185.98-33.92Q192.96-33.92 194.24-29.31L194.24-29.31L194.24-29.31Q194.69-27.84 194.69-26.56L194.69-26.56L194.69-26.56Q194.69-25.28 194.59-24.29L194.59-24.29L194.59-24.29Q194.50-23.30 194.18-21.50L194.18-21.50L193.34-16.90L191.87-9.66L191.87-9.66Q191.55-8.19 191.55-7.10ZM225.54-10.82L225.54-10.82L225.54-10.82Q227.14-9.73 227.14-7.33L227.14-7.33L227.14-7.33Q227.14-4.93 225.92-3.39L225.92-3.39L225.92-3.39Q224.70-1.86 222.72-0.83L222.72-0.83L222.72-0.83Q218.62 1.28 214.21 1.28L214.21 1.28L214.21 1.28Q209.79 1.28 207.20 0.32L207.20 0.32L207.20 0.32Q204.61-0.64 202.88-2.43L202.88-2.43L202.88-2.43Q199.49-5.82 199.49-12.03L199.49-12.03L199.49-12.03Q199.49-21.70 204.74-27.58L204.74-27.58L204.74-27.58Q210.37-33.92 220.16-33.92L220.16-33.92L220.16-33.92Q226.24-33.92 229.25-31.36L229.25-31.36L229.25-31.36Q231.49-29.44 231.49-26.30L231.49-26.30L231.49-26.30Q231.49-15.04 212.03-15.04L212.03-15.04L212.03-15.04Q211.78-13.38 211.78-11.97L211.78-11.97L211.78-11.97Q211.78-9.02 213.09-7.90L213.09-7.90L213.09-7.90Q214.40-6.78 216.83-6.78L216.83-6.78L216.83-6.78Q219.26-6.78 221.86-7.90L221.86-7.90L221.86-7.90Q224.45-9.02 225.54-10.82ZM212.48-17.79L212.48-17.79L212.48-17.79Q217.02-17.79 219.65-20.61L219.65-20.61L219.65-20.61Q222.27-23.30 222.27-27.58L222.27-27.58L222.27-27.58Q222.27-29.06 221.73-29.86L221.73-29.86L221.73-29.86Q221.18-30.66 220.10-30.66L220.10-30.66L220.10-30.66Q219.01-30.66 218.08-30.24L218.08-30.24L218.08-30.24Q217.15-29.82 216.19-28.42L216.19-28.42L216.19-28.42Q213.82-25.22 212.48-17.79ZM248.96-3.52L248.96-3.52L248.96-3.52Q246.98 1.28 240.64 1.28L240.64 1.28L240.64 1.28Q237.44 1.28 235.39-0.96L235.39-0.96L235.39-0.96Q233.73-2.82 233.73-4.93L233.73-4.93L233.73-4.93Q233.73-9.73 235.97-20.22L235.97-20.22L240.64-44.80L253.63-46.08L247.42-13.70L247.42-13.70Q246.34-8.96 246.34-7.30L246.34-7.30L246.34-7.30Q246.34-3.65 248.96-3.52ZM279.36-37.12L279.36-37.12L279.36-37.12Q280.26-38.66 280.26-40.32L280.26-40.32L280.26-40.32Q280.26-43.26 278.46-43.26L278.46-43.26L278.46-43.26Q275.71-43.26 274.56-37.63L274.56-37.63L273.60-32.64L279.42-32.64L279.04-29.76L273.02-29.76L267.26 0L254.34 1.28L260.48-29.76L255.94-29.76L256.51-32.64L260.99-32.64L262.34-37.70L262.34-37.70Q263.49-42.37 268.42-44.54L268.42-44.54L268.42-44.54Q272-46.08 278.02-46.08L278.02-46.08L278.02-46.08Q284.03-46.08 286.72-44.54L286.72-44.54L286.72-44.54Q289.41-43.01 289.41-40.96L289.41-40.96L289.41-40.96Q289.41-38.91 287.81-37.63L287.81-37.63L287.81-37.63Q286.21-36.35 284.42-36.35L284.42-36.35L284.42-36.35Q280.90-36.35 279.36-37.12Z" fill="#ffd5af"></path></g></g><style>
  text {
  font-size: 64px;
  font-family: "Myriad Pro Regular", sans-serif;
  dominant-baseline: central;
  text-anchor: middle;
  }</style></svg>  